<svg width="32" height="32" viewBox="0 0 32 32" fill="none" xmlns="http://www.w3.org/2000/svg">
  <rect width="32" height="32" rx="6" fill="#4F46E5"/>
  <path d="M16 8C12.134 8 9 11.134 9 15C9 18.866 12.134 22 16 22C19.866 22 23 18.866 23 15C23 11.134 19.866 8 16 8ZM16 10C18.7614 10 21 12.2386 21 15C21 17.7614 18.7614 20 16 20C13.2386 20 11 17.7614 11 15C11 12.2386 13.2386 10 16 10ZM16 11.5C14.067 11.5 12.5 13.067 12.5 15C12.5 16.933 14.067 18.5 16 18.5C17.933 18.5 19.5 16.933 19.5 15C19.5 13.067 17.933 11.5 16 11.5Z" fill="white"/>
  <path d="M16 24C15.4477 24 15 24.4477 15 25V26C15 26.5523 15.4477 27 16 27C16.5523 27 17 26.5523 17 26V25C17 24.4477 16.5523 24 16 24Z" fill="white"/>
</svg>
